<svg xmlns="http://www.w3.org/2000/svg" viewBox="0 0 205 200"><g id="ae9aefda-6ddb-4160-b472-5fdc3b9253ee" data-name="Github"><path fill="currentColor" d="M102.51.07A102.55,102.55,0,0,0,70.07,199.89c5.14,1,7-2.2,7-4.95,0-2.43-.06-8.87-.09-17.42-28.53,6.18-34.54-13.78-34.54-13.78-4.67-11.82-11.41-15-11.41-15-3.07-2.1-3.92-3.53-3.83-4.52.35-3.59,5.31-2.79,5.31-2.79,10.11.91,14.94,11.65,14.94,11.65,9.14,15.68,24,11.15,29.86,8.51.9-6.61,3.57-11.15,6.48-13.68C61,145.35,37.1,136.54,37.1,97.25A39.61,39.61,0,0,1,47.64,69.71c-1.13-2.57-4.61-13,.9-27.13,0,0,8.58-2.74,28.19,10.51a96.66,96.66,0,0,1,51.26,0c19.49-13.25,28.06-10.51,28.06-10.51,5.51,14.12,2,24.56,1,27.13a39.9,39.9,0,0,1,10.47,27.54c0,39.38-24,48.06-46.74,50.56,3.56,3.07,6.9,9.38,6.9,19,0,13.72-.13,24.76-.13,28.1,0,2.67,1.79,5.87,7.07,4.84A102.39,102.39,0,0,0,102.49.07Z"/></g></svg>