<svg id="adafcefe-0005-4d03-b53c-97e3f8babe06" data-name="Github-outline" xmlns="http://www.w3.org/2000/svg" viewBox="0 0 200 200"><path d="M136.1,192l0-32.93a28.75,28.75,0,0,0-8-22.22c26.69-3,54.74-13.11,54.74-59.6a46.34,46.34,0,0,0-12.75-31.93,43.27,43.27,0,0,0-.76-32.11c-4.37-10.2-10-3-33.24,12.61a113.56,113.56,0,0,0-59.51,0C53.41,10.23,43.07,8,43.07,8c-4.37,10.2-4.33,26.92-.45,37.32A46.34,46.34,0,0,0,29.87,77.5c0,46.15,28.05,56.28,54.74,59.6a28.77,28.77,0,0,0-8,22L76.54,192m.08-25.47c-42.5,12.77-42.5-21.29-59.5-25.54" fill="none" stroke="currentColor" stroke-linecap="round" stroke-linejoin="round" stroke-width="16"/></svg>