<svg xmlns="http://www.w3.org/2000/svg" viewBox="0 0 200 200"><g id="f5204920-5cc7-4acb-99c1-f5afad1f4b9b" data-name="LinkedIn"><path d="M52.14,66.67A14.61,14.61,0,1,1,66.72,52.06,14.77,14.77,0,0,1,52.14,66.67ZM161.8,161.9H137.87v-40c0-9.68-1.27-22.06-14.42-22.06-13.47,0-15.69,10.48-15.69,21.43V161.9H84V79.36h22.19V90.48h.63c3.49-6.35,11.57-11.27,24.25-11.27,26.15,0,30.74,15.08,30.74,37.46Zm-95.24,0H38V79.36H66.56ZM200,50A50,50,0,0,0,150,0H50A50,50,0,0,0,0,50V150a50,50,0,0,0,50,50H150a50,50,0,0,0,50-50Z" fill="currentColor"/></g></svg>