<svg xmlns="http://www.w3.org/2000/svg" viewBox="0 0 200 200"><g id="ae4e9d0e-b0bd-4cd2-9e85-0a9a2824ce27" data-name="Mail"><path d="M0,42.6,100.3,118.17,200,43a14,14,0,0,0-14-13.72H14A14,14,0,0,0,0,42.6Zm51.38,60L0,136V63.85ZM200,136l-51.13-33.2L200,64.31ZM65.64,113.31a4.16,4.16,0,0,1-1,1L2.49,154.6a4.2,4.2,0,0,1-2.49.68v0a14,14,0,0,0,14,14H186a14,14,0,0,0,14-14v-.09a4.2,4.2,0,0,1-2.66-.67l-62.12-40.33a4.4,4.4,0,0,1-.7-.58l-29,21.88a8.76,8.76,0,0,1-10.37,0Z" fill-rule="evenodd" fill="currentColor"/></g></svg>