<svg xmlns="http://www.w3.org/2000/svg" xmlns:xlink="http://www.w3.org/1999/xlink" viewBox="0 0 200 200"><defs><clipPath id="b0f80c8e-dc19-445d-8732-0435bac45d01"><rect x="0.28" y="0.01" width="200" height="200" fill="none"/></clipPath></defs><g id="f61aa873-9f65-4aab-b20c-3703c75c2d48" data-name="Sun"><g clip-path="url(#b0f80c8e-dc19-445d-8732-0435bac45d01)"><path d="M110.26,10a10,10,0,0,0-20,0V25a10,10,0,1,0,20,0ZM26.72,36.4a10,10,0,0,0,2.92,7.12L40.28,54.16A10,10,0,0,0,54.39,39.91L43.75,29.27a10,10,0,0,0-17,7.13ZM171,43.52a10,10,0,0,0-14.11-14.11L146.21,40.05a10,10,0,1,0,14.11,14.11ZM175.26,90a10,10,0,1,0,0,20h15.05a10,10,0,0,0,0-20Zm-165,0a10,10,0,1,0,0,20H25.31a10,10,0,0,0,0-20Zm90-40a50,50,0,1,1-50,50A50,50,0,0,1,100.28,50Zm45.89,95.87,0,.05a10,10,0,0,0,0,14.11l10.64,10.64a10,10,0,0,0,14.11,0l0-.05.05,0a10,10,0,0,0,0-14.11l-10.64-10.64a10,10,0,0,0-14.11,0ZM54.53,160.09A10,10,0,1,0,40.43,146L29.78,156.62a10,10,0,1,0,14.11,14.11ZM110.26,175a10,10,0,0,0-20,0V190a10,10,0,1,0,20,0Z" fill="currentColor" fill-rule="evenodd"/></g></g></svg>